STARTFONT 2.1
FONT -JDECW-Screen-Medium-R-Normal--14-140-75-75-M-140-JISX0208-Kanji00.3
SIZE 14 75 75
FONTBOUNDINGBOX 14 14 0 -2

STARTPROPERTIES 26
FONTNAME_REGISTRY ""
FAMILY_NAME "Screen"
FOUNDRY "JDECW"
WEIGHT_NAME "Medium"
SLANT "R"
SETWIDTH_NAME "Normal"
ADD_STYLE_NAME ""
PIXEL_SIZE 14
POINT_SIZE 140
RESOLUTION_X 75
RESOLUTION_Y 75
SPACING "M"
AVERAGE_WIDTH 140
CHARSET_REGISTRY "JISX0208"
CHARSET_ENCODING "Kanji00"
DEVICE_FONT_NAME "Screen-JISX0208-Kanji00"
CHARSET_COLLECTIONS "JISX0208 Kanji00"
FULL_NAME "Screen JISX0208 Kanji00"
COPYRIGHT "Copyright (c) 1988 Digital Equipment Corporation Japan."
CAP_HEIGHT 10
X_HEIGHT 7
WEIGHT 10
QUAD_WIDTH 14
DEFAULT_CHAR 8738
FONT_DESCENT 2
FONT_ASCENT 12
ENDPROPERTIES

CHARS 59

STARTCHAR C2122
ENCODING 8482
SWIDTH 1000 0
DWIDTH 14 0
BBX 14 14 0 -2
BITMAP
0000
0000
0010
0008
0000
0000
0000
0000
0000
0000
0000
0000
0000
0000
ENDCHAR

STARTCHAR C2123
ENCODING 8483
SWIDTH 1000 0
DWIDTH 14 0
BBX 14 14 0 -2
BITMAP
0000
0000
0030
0048
0048
0030
0000
0000
0000
0000
0000
0000
0000
0000
ENDCHAR

STARTCHAR C2124
ENCODING 8484
SWIDTH 1000 0
DWIDTH 14 0
BBX 14 14 0 -2
BITMAP
0000
0000
0018
0018
0008
0010
0000
0000
0000
0000
0000
0000
0000
0000
ENDCHAR

STARTCHAR C2125
ENCODING 8485
SWIDTH 1000 0
DWIDTH 14 0
BBX 14 14 0 -2
BITMAP
0000
0000
0060
0060
0000
0000
0000
0000
0000
0000
0000
0000
0000
0000
ENDCHAR

STARTCHAR C2131
ENCODING 8497
SWIDTH 1000 0
DWIDTH 14 0
BBX 14 14 0 -2
BITMAP
0000
0008
0008
0008
0008
0008
0008
0008
0008
0008
0008
0008
0008
0000
ENDCHAR

STARTCHAR C2132
ENCODING 8498
SWIDTH 1000 0
DWIDTH 14 0
BBX 14 14 0 -2
BITMAP
0000
4000
4000
4000
4000
4000
4000
4000
4000
4000
4000
4000
4000
0000
ENDCHAR

STARTCHAR C213c
ENCODING 8508
SWIDTH 1000 0
DWIDTH 14 0
BBX 14 14 0 -2
BITMAP
0000
0000
0200
0100
0100
0100
0100
0100
0100
0100
0100
0100
0000
0000
ENDCHAR

STARTCHAR C213d
ENCODING 8509
SWIDTH 1000 0
DWIDTH 14 0
BBX 14 14 0 -2
BITMAP
0000
0200
0200
0200
0200
0200
0200
0200
0200
0200
0200
0200
0200
0000
ENDCHAR

STARTCHAR C213e
ENCODING 8510
SWIDTH 1000 0
DWIDTH 14 0
BBX 14 14 0 -2
BITMAP
0000
0000
0000
0000
0000
0200
0200
0200
0000
0000
0000
0000
0000
0000
ENDCHAR

STARTCHAR C2141
ENCODING 8513
SWIDTH 1000 0
DWIDTH 14 0
BBX 14 14 0 -2
BITMAP
0000
0200
0400
0400
0400
0400
0200
0100
0080
0080
0080
0080
0100
0000
ENDCHAR

STARTCHAR C2142
ENCODING 8514
SWIDTH 1000 0
DWIDTH 14 0
BBX 14 14 0 -2
BITMAP
0000
0000
0000
0000
0000
7FF8
0000
0000
7FF8
0000
0000
0000
0000
0000
ENDCHAR

STARTCHAR C2143
ENCODING 8515
SWIDTH 1000 0
DWIDTH 14 0
BBX 14 14 0 -2
BITMAP
0000
0000
0000
0000
0000
0000
7FF8
0000
0000
0000
0000
0000
0000
0000
ENDCHAR

STARTCHAR C2144
ENCODING 8516
SWIDTH 1000 0
DWIDTH 14 0
BBX 14 14 0 -2
BITMAP
0000
0000
0300
0300
0000
0000
0300
0300
0000
0000
0300
0300
0000
0000
ENDCHAR

STARTCHAR C2145
ENCODING 8517
SWIDTH 1000 0
DWIDTH 14 0
BBX 14 14 0 -2
BITMAP
0000
0000
0000
0300
0300
0000
0000
0000
0000
0300
0300
0000
0000
0000
ENDCHAR

STARTCHAR C2146
ENCODING 8518
SWIDTH 1000 0
DWIDTH 14 0
BBX 14 14 0 -2
BITMAP
0000
0000
0000
0000
0000
0000
0000
0000
0000
0000
0070
0068
0000
0000
ENDCHAR

STARTCHAR C2147
ENCODING 8519
SWIDTH 1000 0
DWIDTH 14 0
BBX 14 14 0 -2
BITMAP
0000
0000
0058
0038
0000
0000
0000
0000
0000
0000
0000
0000
0000
0000
ENDCHAR

STARTCHAR C2148
ENCODING 8520
SWIDTH 1000 0
DWIDTH 14 0
BBX 14 14 0 -2
BITMAP
0000
0000
0000
0000
0000
0000
0000
0070
0068
0000
0070
0068
0000
0000
ENDCHAR

STARTCHAR C2149
ENCODING 8521
SWIDTH 1000 0
DWIDTH 14 0
BBX 14 14 0 -2
BITMAP
0000
0000
0058
0038
0000
0058
0038
0000
0000
0000
0000
0000
0000
0000
ENDCHAR

STARTCHAR C214a
ENCODING 8522
SWIDTH 1000 0
DWIDTH 14 0
BBX 14 14 0 -2
BITMAP
0000
0000
0000
0000
0000
0000
0000
0000
0780
1860
2010
4008
0000
0000
ENDCHAR

STARTCHAR C214b
ENCODING 8523
SWIDTH 1000 0
DWIDTH 14 0
BBX 14 14 0 -2
BITMAP
0000
0000
4008
2010
1860
0780
0000
0000
0000
0000
0000
0000
0000
0000
ENDCHAR

STARTCHAR C214c
ENCODING 8524
SWIDTH 1000 0
DWIDTH 14 0
BBX 14 14 0 -2
BITMAP
0000
0000
0000
0000
0000
0000
0000
0000
0000
1FE0
2010
4008
0000
0000
ENDCHAR

STARTCHAR C214d
ENCODING 8525
SWIDTH 1000 0
DWIDTH 14 0
BBX 14 14 0 -2
BITMAP
0000
0000
4008
2010
1FE0
0000
0000
0000
0000
0000
0000
0000
0000
0000
ENDCHAR

STARTCHAR C214e
ENCODING 8526
SWIDTH 1000 0
DWIDTH 14 0
BBX 14 14 0 -2
BITMAP
0000
0000
0000
0000
0000
0000
0000
0000
0000
7FF8
4008
4008
0000
0000
ENDCHAR

STARTCHAR C214f
ENCODING 8527
SWIDTH 1000 0
DWIDTH 14 0
BBX 14 14 0 -2
BITMAP
0000
0000
4008
4008
7FF8
0000
0000
0000
0000
0000
0000
0000
0000
0000
ENDCHAR

STARTCHAR C2150
ENCODING 8528
SWIDTH 1000 0
DWIDTH 14 0
BBX 14 14 0 -2
BITMAP
0000
0000
0000
0000
0000
0000
0000
0000
0000
0300
3CF0
4008
0000
0000
ENDCHAR

STARTCHAR C2151
ENCODING 8529
SWIDTH 1000 0
DWIDTH 14 0
BBX 14 14 0 -2
BITMAP
0000
0000
4008
3CF0
0300
0000
0000
0000
0000
0000
0000
0000
0000
0000
ENDCHAR

STARTCHAR C2152
ENCODING 8530
SWIDTH 1000 0
DWIDTH 14 0
BBX 14 14 0 -2
BITMAP
0000
0000
0000
0000
0000
0000
0000
0000
0300
0CC0
3030
4008
0000
0000
ENDCHAR

STARTCHAR C2153
ENCODING 8531
SWIDTH 1000 0
DWIDTH 14 0
BBX 14 14 0 -2
BITMAP
0000
0000
4008
3030
0CC0
0300
0000
0000
0000
0000
0000
0000
0000
0000
ENDCHAR

STARTCHAR C2154
ENCODING 8532
SWIDTH 1000 0
DWIDTH 14 0
BBX 14 14 0 -2
BITMAP
0000
0000
0000
0000
0000
0000
0300
0CC0
3030
4308
0CC0
3030
4008
0000
ENDCHAR

STARTCHAR C2155
ENCODING 8533
SWIDTH 1000 0
DWIDTH 14 0
BBX 14 14 0 -2
BITMAP
0000
4008
3030
0CC0
4308
3030
0CC0
0300
0000
0000
0000
0000
0000
0000
ENDCHAR

STARTCHAR C2156
ENCODING 8534
SWIDTH 1000 0
DWIDTH 14 0
BBX 14 14 0 -2
BITMAP
0000
0000
0000
0000
0000
0000
0000
0000
0000
0FF8
0008
0008
0000
0000
ENDCHAR

STARTCHAR C2157
ENCODING 8535
SWIDTH 1000 0
DWIDTH 14 0
BBX 14 14 0 -2
BITMAP
0000
0000
4000
4000
7FC0
0000
0000
0000
0000
0000
0000
0000
0000
0000
ENDCHAR

STARTCHAR C2158
ENCODING 8536
SWIDTH 1000 0
DWIDTH 14 0
BBX 14 14 0 -2
BITMAP
0000
0000
0000
0000
0000
0000
0000
1FF8
1008
1FE8
0028
0038
0000
0000
ENDCHAR

STARTCHAR C2159
ENCODING 8537
SWIDTH 1000 0
DWIDTH 14 0
BBX 14 14 0 -2
BITMAP
0000
0000
7000
5000
5FE0
4020
7FE0
0000
0000
0000
0000
0000
0000
0000
ENDCHAR

STARTCHAR C215a
ENCODING 8538
SWIDTH 1000 0
DWIDTH 14 0
BBX 14 14 0 -2
BITMAP
0000
0000
0000
0000
0000
0000
0000
0000
7FF8
7878
6018
4008
0000
0000
ENDCHAR

STARTCHAR C215b
ENCODING 8539
SWIDTH 1000 0
DWIDTH 14 0
BBX 14 14 0 -2
BITMAP
0000
0000
4008
6018
7878
7FF8
0000
0000
0000
0000
0000
0000
0000
0000
ENDCHAR

STARTCHAR C2222
ENCODING 8738
SWIDTH 1000 0
DWIDTH 14 0
BBX 14 14 0 -2
BITMAP
0000
0000
3FF0
2010
2010
2010
2010
2010
2010
2010
2010
3FF0
0000
0000
ENDCHAR

STARTCHAR C2421
ENCODING 9249
SWIDTH 1000 0
DWIDTH 14 0
BBX 14 14 0 -2
BITMAP
0000
0000
0000
0100
07E0
0100
01E0
0350
0590
0710
0060
0000
0000
0000
ENDCHAR

STARTCHAR C2423
ENCODING 9251
SWIDTH 1000 0
DWIDTH 14 0
BBX 14 14 0 -2
BITMAP
0000
0000
0000
0000
0100
0220
0210
0210
0290
0100
0000
0000
0000
0000
ENDCHAR

STARTCHAR C2425
ENCODING 9253
SWIDTH 1000 0
DWIDTH 14 0
BBX 14 14 0 -2
BITMAP
0000
0000
0000
0100
00C0
0000
00E0
0310
0010
0020
00C0
0000
0000
0000
ENDCHAR

STARTCHAR C2427
ENCODING 9255
SWIDTH 1000 0
DWIDTH 14 0
BBX 14 14 0 -2
BITMAP
0000
0000
0000
0080
0060
0000
03E0
0040
00C0
0140
0270
0000
0000
0000
ENDCHAR

STARTCHAR C2429
ENCODING 9257
SWIDTH 1000 0
DWIDTH 14 0
BBX 14 14 0 -2
BITMAP
0000
0000
0000
0200
0220
0F90
0200
03C0
0620
0A20
0EC0
0000
0000
0000
ENDCHAR

STARTCHAR C2443
ENCODING 9283
SWIDTH 1000 0
DWIDTH 14 0
BBX 14 14 0 -2
BITMAP
0000
0000
0000
0000
01C0
0620
0020
0020
01C0
0000
0000
0000
0000
0000
ENDCHAR

STARTCHAR C2463
ENCODING 9315
SWIDTH 1000 0
DWIDTH 14 0
BBX 14 14 0 -2
BITMAP
0000
0000
0000
0040
0440
02E0
0710
0160
0100
0080
0080
0000
0000
0000
ENDCHAR

STARTCHAR C2465
ENCODING 9317
SWIDTH 1000 0
DWIDTH 14 0
BBX 14 14 0 -2
BITMAP
0000
0000
0000
0080
0040
04E0
0550
0650
02E0
0040
0080
0000
0000
0000
ENDCHAR

STARTCHAR C2467
ENCODING 9319
SWIDTH 1000 0
DWIDTH 14 0
BBX 14 14 0 -2
BITMAP
0000
0000
0000
0040
0040
0070
0040
01C0
0260
01D0
0000
0000
0000
0000
ENDCHAR

STARTCHAR C246e
ENCODING 9326
SWIDTH 1000 0
DWIDTH 14 0
BBX 14 14 0 -2
BITMAP
0000
0000
0000
0100
0100
07E0
0110
0310
0510
0160
0000
0000
0000
0000
ENDCHAR

STARTCHAR C2521
ENCODING 9505
SWIDTH 1000 0
DWIDTH 14 0
BBX 14 14 0 -2
BITMAP
0000
0000
0000
03F0
0010
0020
00C0
0080
0080
0100
0000
0000
0000
0000
ENDCHAR

STARTCHAR C2523
ENCODING 9507
SWIDTH 1000 0
DWIDTH 14 0
BBX 14 14 0 -2
BITMAP
0000
0000
0000
0010
0020
00C0
0340
0040
0040
0040
0000
0000
0000
0000
ENDCHAR

STARTCHAR C2525
ENCODING 9509
SWIDTH 1000 0
DWIDTH 14 0
BBX 14 14 0 -2
BITMAP
0000
0000
0000
0040
0040
01F0
0110
0110
0010
0020
0040
0000
0000
0000
ENDCHAR

STARTCHAR C2527
ENCODING 9511
SWIDTH 1000 0
DWIDTH 14 0
BBX 14 14 0 -2
BITMAP
0000
0000
0000
0000
07C0
0100
0100
0100
0FE0
0000
0000
0000
0000
0000
ENDCHAR

STARTCHAR C2529
ENCODING 9513
SWIDTH 1000 0
DWIDTH 14 0
BBX 14 14 0 -2
BITMAP
0000
0000
0000
0040
0040
07F0
00C0
0140
0240
0440
00C0
0000
0000
0000
ENDCHAR

STARTCHAR C2543
ENCODING 9539
SWIDTH 1000 0
DWIDTH 14 0
BBX 14 14 0 -2
BITMAP
0000
0000
0000
0100
0490
0290
0210
0010
0020
0040
0180
0000
0000
0000
ENDCHAR

STARTCHAR C2563
ENCODING 9571
SWIDTH 1000 0
DWIDTH 14 0
BBX 14 14 0 -2
BITMAP
0000
0000
0000
0100
0170
0790
0120
0080
0080
0080
0000
0000
0000
0000
ENDCHAR

STARTCHAR C2565
ENCODING 9573
SWIDTH 1000 0
DWIDTH 14 0
BBX 14 14 0 -2
BITMAP
0000
0000
0000
0000
0780
0080
0080
0080
0FE0
0000
0000
0000
0000
0000
ENDCHAR

STARTCHAR C2567
ENCODING 9575
SWIDTH 1000 0
DWIDTH 14 0
BBX 14 14 0 -2
BITMAP
0000
0000
0000
03F0
0010
0010
03F0
0010
0010
03F0
0000
0000
0000
0000
ENDCHAR

STARTCHAR C256e
ENCODING 9582
SWIDTH 1000 0
DWIDTH 14 0
BBX 14 14 0 -2
BITMAP
0000
0000
0000
03F0
0210
0210
0010
0010
0020
00C0
0000
0000
0000
0000
ENDCHAR

STARTCHAR C2575
ENCODING 9589
SWIDTH 1000 0
DWIDTH 14 0
BBX 14 14 0 -2
BITMAP
0000
0000
0000
0080
0080
03F0
0090
0090
0110
0110
0260
0000
0000
0000
ENDCHAR

STARTCHAR C2576
ENCODING 9590
SWIDTH 1000 0
DWIDTH 14 0
BBX 14 14 0 -2
BITMAP
0000
0000
0000
0200
0200
03F0
0440
0840
0040
0080
0300
0000
0000
0000
ENDCHAR
ENDFONT
